<?xml version="1.0" encoding="UTF-8" standalone="no"?>
<svg
   xmlns:dc="http://purl.org/dc/elements/1.1/"
   xmlns:cc="http://creativecommons.org/ns#"
   xmlns:rdf="http://www.w3.org/1999/02/22-rdf-syntax-ns#"
   xmlns:svg="http://www.w3.org/2000/svg"
   xmlns="http://www.w3.org/2000/svg"
   xmlns:sodipodi="http://sodipodi.sourceforge.net/DTD/sodipodi-0.dtd"
   xmlns:inkscape="http://www.inkscape.org/namespaces/inkscape"
   width="75"
   height="75"
   viewBox="0 0 19.84375 19.843751"
   version="1.1"
   id="svg85"
   inkscape:version="1.0.2-2 (e86c870879, 2021-01-15)"
   sodipodi:docname="github.svg">
  <defs
     id="defs79" />
  <sodipodi:namedview
     id="base"
     pagecolor="#ffffff"
     bordercolor="#666666"
     borderopacity="1.0"
     inkscape:pageopacity="0.0"
     inkscape:pageshadow="2"
     inkscape:zoom="7.9195959"
     inkscape:cx="28.942909"
     inkscape:cy="50.020763"
     inkscape:document-units="mm"
     inkscape:current-layer="layer1"
     inkscape:document-rotation="0"
     showgrid="false"
     units="px"
     inkscape:window-width="1431"
     inkscape:window-height="1030"
     inkscape:window-x="296"
     inkscape:window-y="24"
     inkscape:window-maximized="0" />
  <metadata
     id="metadata82">
    <rdf:RDF>
      <cc:Work
         rdf:about="">
        <dc:format>image/svg+xml</dc:format>
        <dc:type
           rdf:resource="http://purl.org/dc/dcmitype/StillImage" />
        <dc:title></dc:title>
      </cc:Work>
    </rdf:RDF>
  </metadata>
  <g
     inkscape:label="Layer 1"
     inkscape:groupmode="layer"
     id="layer1">
    <path
       fill-rule="evenodd"
       clip-rule="evenodd"
       d="m 9.8415348,0.63255983 c -5.1757851,0 -9.36794449,4.19215927 -9.36794449,9.36794417 0,4.14531 2.68157709,7.646583 6.40532689,8.887837 0.4683949,0.08199 0.6440523,-0.199082 0.6440523,-0.444986 0,-0.222491 -0.011712,-0.960215 -0.011712,-1.744772 C 5.1575545,17.131841 4.5486395,16.124791 4.3612844,15.597849 4.2558725,15.328521 3.7992045,14.497114 3.4010696,14.274622 3.0731945,14.098978 2.6047995,13.665706 3.3893566,13.653995 c 0.7377225,-0.01172 1.2646797,0.679175 1.4403224,0.960214 0.8431198,1.416897 2.1897573,1.018763 2.7284123,0.77286 0.081987,-0.608915 0.327875,-1.018763 0.5972024,-1.252968 -2.0843599,-0.23419 -4.2624048,-1.042187 -4.2624048,-4.625417 0,-1.0187621 0.3630124,-1.8618824 0.9602149,-2.5176325 -0.093699,-0.2342048 -0.4215599,-1.1944196 0.0937,-2.4825096 0,0 0.7845722,-0.2459026 2.5761944,0.9602149 0.7494349,-0.21078 1.5457056,-0.3161626 2.3419749,-0.3161626 0.7962849,0 1.5925549,0.105412 2.3419889,0.3161626 1.791623,-1.2178299 2.57618,-0.9602149 2.57618,-0.9602149 0.515245,1.28809 0.18737,2.2483048 0.0937,2.4825096 0.597203,0.6557501 0.960215,1.4871574 0.960215,2.5176325 0,3.594943 -2.189756,4.391227 -4.274117,4.625417 0.339588,0.292753 0.632326,0.854833 0.632326,1.733075 0,1.252953 -0.01172,2.260017 -0.01172,2.576179 0,0.245904 0.175658,0.538656 0.644053,0.444986 3.70034,-1.241254 6.381902,-4.75424 6.381902,-8.887837 0,-5.1757849 -4.192145,-9.36794417 -9.367929,-9.36794417 z"
       fill="#1b1f23"
       id="path97"
       style="stroke-width:1.17098;fill:#ffffff" />
  </g>
</svg>
