<?xml version="1.0" encoding="UTF-8" standalone="no"?>
<svg
   xmlns:dc="http://purl.org/dc/elements/1.1/"
   xmlns:cc="http://creativecommons.org/ns#"
   xmlns:rdf="http://www.w3.org/1999/02/22-rdf-syntax-ns#"
   xmlns:svg="http://www.w3.org/2000/svg"
   xmlns="http://www.w3.org/2000/svg"
   width="75"
   height="75"
   viewBox="0 0 19.84375 19.84375"
   version="1.1"
   id="svg156">
  <defs
     id="defs150" />
  <metadata
     id="metadata153">
    <rdf:RDF>
      <cc:Work
         rdf:about="">
        <dc:format>image/svg+xml</dc:format>
        <dc:type
           rdf:resource="http://purl.org/dc/dcmitype/StillImage" />
        <dc:title></dc:title>
      </cc:Work>
    </rdf:RDF>
  </metadata>
  <g
     id="layer1">
    <path
       d="m 19.622113,5.1680542 a 0.29625234,0.29625234 0 0 1 0.01015,0.076544 V 9.2624958 A 0.29295658,0.29295658 0 0 1 19.48506,9.5166356 l -3.372297,1.9415714 v 3.848352 c 0,0.104736 -0.05567,0.201402 -0.146473,0.254138 l -7.039382,4.052322 c -0.016201,0.0091 -0.033689,0.0151 -0.051266,0.02131 -0.00666,0.0022 -0.012865,0.0062 -0.019752,0.008 a 0.29478756,0.29478756 0 0 1 -0.1501363,0 c -0.00799,-0.0022 -0.015314,-0.0067 -0.023081,-0.0096 -0.016201,-0.0058 -0.032957,-0.01088 -0.048336,-0.01975 L 1.5964949,15.560751 A 0.29332279,0.29332279 0 0 1 1.4492882,15.306611 V 3.2529111 c 0,-0.026366 0.00355,-0.051998 0.010211,-0.076899 0.00222,-0.00843 0.00732,-0.016201 0.010211,-0.024546 0.00556,-0.015314 0.010646,-0.031115 0.018642,-0.045407 0.00556,-0.00954 0.013533,-0.017311 0.020196,-0.026011 0.00843,-0.011763 0.016201,-0.023813 0.026011,-0.034066 0.00843,-0.00843 0.019308,-0.014648 0.028917,-0.021971 0.010646,-0.00866 0.020196,-0.01842 0.032224,-0.025278 h 3.661e-4 L 5.1152035,0.97257183 a 0.29368898,0.29368898 0 0 1 0.2929577,0 L 8.9273004,2.9987337 h 7.325e-4 c 0.011763,0.00732 0.021527,0.016423 0.032224,0.024901 0.00954,0.00732 0.020196,0.013982 0.028562,0.021971 0.010211,0.010646 0.017533,0.022704 0.026366,0.034422 0.00621,0.00888 0.014648,0.016423 0.019752,0.026011 0.00843,0.014648 0.013097,0.030027 0.019086,0.045407 0.00289,0.00843 0.00799,0.016201 0.010211,0.024901 a 0.29625234,0.29625234 0 0 1 0.010211,0.076544 V 10.781507 L 12.006941,9.0929785 V 5.2442609 c 0,-0.025634 0.0036,-0.051643 0.01021,-0.076167 0.0027,-0.00888 0.0073,-0.016423 0.01021,-0.024901 0.0058,-0.015314 0.01088,-0.031136 0.01909,-0.045407 0.0056,-0.00954 0.01353,-0.017311 0.01975,-0.026011 0.0087,-0.011763 0.0162,-0.023813 0.02637,-0.034066 0.0084,-0.00843 0.01909,-0.014648 0.02856,-0.021971 0.01088,-0.00888 0.02042,-0.018421 0.03222,-0.025278 h 3.67e-4 l 3.519497,-2.02616 a 0.29332279,0.29332279 0 0 1 0.292955,0 l 3.519141,2.0261617 c 0.01247,0.00732 0.02197,0.016423 0.03295,0.024901 0.0091,0.00732 0.01975,0.013982 0.02818,0.021971 0.01015,0.010646 0.01754,0.022704 0.02637,0.034422 0.0067,0.00866 0.01465,0.016423 0.01975,0.026011 0.0084,0.0142 0.01305,0.030027 0.01909,0.045407 0.0033,0.00843 0.008,0.016201 0.01015,0.024901 z M 19.045721,9.0929407 V 5.7517701 l -1.231517,0.7089557 -1.701346,0.9795738 v 3.3411694 l 2.933229,-1.6885283 z m -3.519142,6.0440623 v -3.343368 l -1.673514,0.95577 -4.7788553,2.727425 v 3.374863 z M 2.0359267,3.7600319 V 15.137003 l 6.4516378,3.714321 v -3.374125 l -3.3704657,-1.907516 -0.0011,-7.32e-4 -0.00152,-7.33e-4 c -0.011313,-0.0067 -0.020862,-0.0162 -0.031492,-0.02416 -0.00909,-0.0074 -0.019752,-0.01305 -0.02783,-0.02131 l -7.324e-4,-0.0011 c -0.00954,-0.0091 -0.016201,-0.02042 -0.024169,-0.03076 -0.00732,-0.0097 -0.016201,-0.01842 -0.021971,-0.02856 l -3.64e-4,-0.0011 c -0.00666,-0.01088 -0.010646,-0.02416 -0.015314,-0.03662 -0.00466,-0.01088 -0.010878,-0.0213 -0.013982,-0.03296 v -3.64e-4 c -0.00355,-0.01398 -0.00444,-0.02856 -0.00577,-0.04285 -0.00152,-0.01088 -0.00444,-0.02197 -0.00444,-0.03296 V 13.314743 5.4484905 L 3.2674387,4.4685504 2.0359201,3.7603292 Z M 5.2621129,1.5650539 2.329983,3.2528511 5.2613784,4.9406461 8.1931422,3.252485 5.2613784,1.5650539 Z M 6.7869508,12.098309 8.4879284,11.119101 V 3.7600319 L 7.2564121,4.4689877 5.5550682,5.4485593 V 12.807631 Z M 15.819903,3.5567942 12.888139,5.2445893 15.819903,6.9323843 18.751298,5.244223 Z M 15.526579,7.4402996 13.825233,6.4607258 12.593717,5.7517701 v 3.3411706 l 1.700979,0.9792073 1.231883,0.709321 z M 8.7805199,14.96965 13.080757,12.514673 15.230326,11.287917 12.300761,9.6012203 8.927731,11.543158 5.8535186,13.312981 Z"
       fill="#ff2d20"
       fill-rule="evenodd"
       id="path1366"
       style="fill:#ccff00;fill-opacity:1;stroke-width:0.366195" />
  </g>
</svg>
